<svg xmlns="http://www.w3.org/2000/svg" width="70" height="64" viewBox="0 0 70 64"><title>Imported Layers</title><desc>Created with Sketch.</desc><path d="M57.359 49.027l-2.484-4.306c-.854.787-1.778 1.496-2.736 2.158l-1.202-2.085c5.567-3.886 9.22-10.331 9.22-17.64 0-11.879-9.63-21.509-21.509-21.509-3.27 0-6.355.75-9.129 2.055l-1.229-2.126c1.042-.502 2.121-.94 3.238-1.289l-2.474-4.285c-11.179 3.961-19.21 14.635-19.21 27.155 0 15.271 11.947 27.798 26.981 28.741v1.61c-4.107.808-13.651 3.025-13.002 6.142h29.675c.253-3.166-9.022-5.349-13.032-6.144v-1.627c6.427-.404 12.289-2.904 16.893-6.85zm-42.662-21.872c0-8.197 4.147-15.434 10.444-19.754l1.22 2.114c-5.57 3.887-9.223 10.333-9.223 17.64 0 11.88 9.63 21.51 21.508 21.51 3.271 0 6.357-.751 9.131-2.055l1.215 2.104c-3.132 1.52-6.635 2.392-10.347 2.392-13.204 0-23.948-10.745-23.948-23.951z"/></svg>